# xmcd
#
# Track frame offsets:
# 150
# 18075
# 32593
# 52623
# 73770
# 93684
# 110929
# 128164
# 150819
# 166899
#
# Disc length: 2464 seconds
#
#
# Revision: 0
# Processed by: cddbd v1.5.1PL0 Copyright (c) Steve Scherf et al.
# Submitted via: FreeRIP 2.931 
#
DISCID=73099e0a
DTITLE=Devilstomp - Hole
DYEAR=2002
DGENRE=Rock
TTITLE0=Jane (happy ending)
TTITLE1=God For Sale
TTITLE2=Dance
TTITLE3=Suck
TTITLE4=Hole
TTITLE5=Mercy
TTITLE6=Bend
TTITLE7=Push
TTITLE8=Alright
TTITLE9=Gone
EXTD=http://cdbaby.com/cd/devilstomp
EXTT0=
EXTT1=
EXTT2=
EXTT3=
EXTT4=
EXTT5=
EXTT6=
EXTT7=
EXTT8=
EXTT9=
PLAYORDER=
